<?xml version="1.0" encoding="utf-8"?>
<!-- Generator: Adobe Illustrator 27.5.0, SVG Export Plug-In . SVG Version: 6.00 Build 0)  -->
<svg version="1.1" id="Layer_1" xmlns="http://www.w3.org/2000/svg" xmlns:xlink="http://www.w3.org/1999/xlink" x="0px" y="0px"
	 viewBox="0 0 595.7 46.6" style="enable-background:new 0 0 595.7 46.6;" xml:space="preserve">
<style type="text/css">
	.st0{fill:#C02F67;}
	.st1{enable-background:new    ;}
	.st2{fill:#FAA21D;}
	.st3{fill:#FFFFFF;}
</style>
<g>
	<rect y="5.9" class="st0" width="595.3" height="40.7"/>
	<g class="st1">
		<path class="st2" d="M132,27.7v-3.1h1.4v3.1h3.1v1.4h-3.1v3.1H132v-3.1h-3.1v-1.4H132z"/>
		<path class="st2" d="M139.7,32.7l2.5-3.7l0,0c-0.1,0.1-0.3,0.1-0.5,0.1c-0.2,0-0.4,0-0.6,0c-0.4,0-0.8-0.1-1.2-0.2s-0.7-0.4-1-0.7
			c-0.3-0.3-0.5-0.6-0.7-1c-0.2-0.4-0.2-0.8-0.2-1.3c0-0.5,0.1-1,0.3-1.4c0.2-0.4,0.4-0.8,0.8-1.1c0.3-0.3,0.7-0.5,1.1-0.7
			c0.4-0.2,0.9-0.2,1.4-0.2c0.5,0,1,0.1,1.4,0.3c0.4,0.2,0.8,0.4,1.2,0.7c0.3,0.3,0.6,0.7,0.8,1.1c0.2,0.4,0.3,0.9,0.3,1.3
			c0,0.3,0,0.5-0.1,0.8c0,0.2-0.1,0.5-0.2,0.7c-0.1,0.2-0.2,0.5-0.3,0.7c-0.1,0.2-0.3,0.5-0.4,0.7l-2.5,3.8H139.7z M143.5,25.9
			c0-0.3,0-0.5-0.1-0.7c-0.1-0.2-0.2-0.4-0.4-0.6s-0.4-0.3-0.6-0.4c-0.2-0.1-0.5-0.2-0.8-0.2c-0.6,0-1,0.2-1.4,0.6
			c-0.3,0.4-0.5,0.8-0.5,1.4c0,0.3,0,0.5,0.1,0.8c0.1,0.2,0.2,0.4,0.4,0.6s0.4,0.3,0.6,0.4c0.2,0.1,0.5,0.1,0.8,0.1
			c0.3,0,0.5,0,0.8-0.1c0.2-0.1,0.4-0.2,0.6-0.4s0.3-0.4,0.4-0.6C143.5,26.4,143.5,26.2,143.5,25.9z"/>
		<path class="st2" d="M149.8,24.8l-2,1.6l-1-1.2l3.1-2.5h1.5v9.9h-1.7V24.8z"/>
		<path class="st2" d="M158.6,22.8h6.7v1.5l-4,8.4h-2l4.2-8.4h-5V22.8z"/>
		<path class="st2" d="M169.4,26.9h0.4c0.3,0,0.5,0,0.7-0.1c0.2,0,0.5-0.1,0.7-0.2c0.2-0.1,0.4-0.3,0.5-0.5s0.2-0.4,0.2-0.7
			c0-0.2,0-0.4-0.1-0.6c-0.1-0.2-0.2-0.3-0.3-0.4c-0.1-0.1-0.3-0.2-0.5-0.3c-0.2-0.1-0.4-0.1-0.6-0.1c-0.4,0-0.8,0.1-1,0.4
			c-0.3,0.2-0.5,0.5-0.6,0.9l-1.6-0.4c0.1-0.3,0.2-0.6,0.4-0.9c0.2-0.3,0.4-0.5,0.7-0.7c0.3-0.2,0.6-0.4,1-0.5
			c0.4-0.1,0.7-0.2,1.1-0.2c0.4,0,0.8,0.1,1.2,0.2c0.4,0.1,0.7,0.3,1,0.5c0.3,0.2,0.5,0.5,0.7,0.8c0.2,0.3,0.2,0.7,0.2,1.2
			c0,0.5-0.2,1-0.5,1.4c-0.3,0.4-0.8,0.7-1.3,0.8v0c0.6,0.1,1.1,0.4,1.5,0.8c0.4,0.4,0.6,0.9,0.6,1.6c0,0.5-0.1,1-0.3,1.3
			c-0.2,0.4-0.5,0.7-0.8,1c-0.3,0.3-0.7,0.4-1.1,0.6c-0.4,0.1-0.8,0.2-1.2,0.2c-0.4,0-0.8,0-1.2-0.1c-0.4-0.1-0.7-0.2-1-0.4
			c-0.3-0.2-0.6-0.4-0.8-0.7c-0.2-0.3-0.4-0.7-0.6-1.1l1.6-0.5c0.1,0.4,0.3,0.7,0.7,1c0.3,0.3,0.8,0.4,1.3,0.4c0.2,0,0.4,0,0.7-0.1
			s0.4-0.2,0.6-0.3s0.3-0.3,0.4-0.5c0.1-0.2,0.2-0.5,0.2-0.8c0-0.3-0.1-0.6-0.2-0.8c-0.2-0.2-0.3-0.4-0.6-0.5s-0.5-0.2-0.8-0.3
			c-0.3-0.1-0.6-0.1-0.8-0.1h-0.4V26.9z"/>
		<path class="st2" d="M175.7,22.8h6.7v1.5l-4,8.4h-2l4.2-8.4h-5V22.8z"/>
		<path class="st2" d="M187.8,22.5c0.4,0,0.8,0.1,1.2,0.2c0.4,0.1,0.7,0.3,1,0.5c0.3,0.2,0.5,0.5,0.7,0.8c0.2,0.3,0.2,0.7,0.2,1.1
			c0,0.6-0.1,1.1-0.4,1.4s-0.7,0.6-1.1,0.8v0c0.3,0.1,0.5,0.2,0.7,0.3c0.2,0.1,0.4,0.3,0.6,0.5c0.2,0.2,0.3,0.4,0.4,0.7
			c0.1,0.3,0.1,0.5,0.1,0.9c0,0.5-0.1,0.9-0.3,1.3s-0.4,0.7-0.7,1c-0.3,0.3-0.7,0.5-1.1,0.6c-0.4,0.1-0.9,0.2-1.3,0.2
			s-0.9-0.1-1.3-0.2c-0.4-0.1-0.8-0.3-1.1-0.6c-0.3-0.3-0.6-0.6-0.7-1s-0.3-0.8-0.3-1.3c0-0.3,0.1-0.6,0.2-0.9s0.2-0.5,0.4-0.7
			c0.2-0.2,0.4-0.4,0.6-0.5c0.2-0.1,0.5-0.2,0.7-0.3v0c-0.4-0.2-0.8-0.4-1.1-0.8c-0.3-0.4-0.4-0.8-0.4-1.4c0-0.4,0.1-0.8,0.2-1.1
			c0.2-0.3,0.4-0.6,0.7-0.9c0.3-0.2,0.6-0.4,1-0.6C187,22.6,187.4,22.5,187.8,22.5z M187.8,28.2c-0.2,0-0.5,0-0.7,0.1
			c-0.2,0.1-0.4,0.2-0.5,0.3c-0.2,0.1-0.3,0.3-0.4,0.5c-0.1,0.2-0.1,0.4-0.1,0.7c0,0.5,0.2,0.9,0.5,1.2c0.3,0.3,0.7,0.4,1.2,0.4
			c0.5,0,0.9-0.1,1.2-0.4c0.3-0.3,0.5-0.7,0.5-1.2c0-0.2,0-0.5-0.1-0.7c-0.1-0.2-0.2-0.4-0.4-0.5c-0.2-0.1-0.3-0.3-0.5-0.4
			C188.3,28.2,188,28.2,187.8,28.2z M187.8,23.9c-0.4,0-0.8,0.1-1,0.4c-0.3,0.3-0.4,0.6-0.4,1c0,0.4,0.1,0.7,0.4,1
			c0.3,0.3,0.6,0.4,1,0.4c0.2,0,0.4,0,0.6-0.1c0.2-0.1,0.3-0.2,0.5-0.3c0.1-0.1,0.2-0.3,0.3-0.5s0.1-0.4,0.1-0.6
			c0-0.2,0-0.4-0.1-0.6c-0.1-0.2-0.2-0.3-0.3-0.4s-0.3-0.2-0.5-0.3C188.2,24,188,23.9,187.8,23.9z"/>
		<path class="st2" d="M192.8,22.8h6.7v1.5l-4,8.4h-2l4.2-8.4h-5V22.8z"/>
		<path class="st2" d="M207.1,26.9h0.4c0.3,0,0.5,0,0.7-0.1c0.2,0,0.5-0.1,0.7-0.2c0.2-0.1,0.4-0.3,0.5-0.5s0.2-0.4,0.2-0.7
			c0-0.2,0-0.4-0.1-0.6c-0.1-0.2-0.2-0.3-0.3-0.4c-0.1-0.1-0.3-0.2-0.5-0.3c-0.2-0.1-0.4-0.1-0.6-0.1c-0.4,0-0.8,0.1-1,0.4
			c-0.3,0.2-0.5,0.5-0.6,0.9l-1.6-0.4c0.1-0.3,0.2-0.6,0.4-0.9c0.2-0.3,0.4-0.5,0.7-0.7c0.3-0.2,0.6-0.4,1-0.5
			c0.4-0.1,0.7-0.2,1.1-0.2c0.4,0,0.8,0.1,1.2,0.2c0.4,0.1,0.7,0.3,1,0.5c0.3,0.2,0.5,0.5,0.7,0.8c0.2,0.3,0.2,0.7,0.2,1.2
			c0,0.5-0.2,1-0.5,1.4c-0.3,0.4-0.8,0.7-1.3,0.8v0c0.6,0.1,1.1,0.4,1.5,0.8c0.4,0.4,0.6,0.9,0.6,1.6c0,0.5-0.1,1-0.3,1.3
			c-0.2,0.4-0.5,0.7-0.8,1c-0.3,0.3-0.7,0.4-1.1,0.6c-0.4,0.1-0.8,0.2-1.2,0.2c-0.4,0-0.8,0-1.2-0.1c-0.4-0.1-0.7-0.2-1-0.4
			c-0.3-0.2-0.6-0.4-0.8-0.7c-0.2-0.3-0.4-0.7-0.6-1.1l1.6-0.5c0.1,0.4,0.3,0.7,0.7,1c0.3,0.3,0.8,0.4,1.3,0.4c0.2,0,0.4,0,0.7-0.1
			s0.4-0.2,0.6-0.3s0.3-0.3,0.4-0.5c0.1-0.2,0.2-0.5,0.2-0.8c0-0.3-0.1-0.6-0.2-0.8c-0.2-0.2-0.3-0.4-0.6-0.5s-0.5-0.2-0.8-0.3
			c-0.3-0.1-0.6-0.1-0.8-0.1h-0.4V26.9z"/>
		<path class="st2" d="M217.5,30.6H213v-1.5l4.2-6.4h2v6.4h1.4v1.4h-1.4v2.1h-1.7V30.6z M217.5,24.8L217.5,24.8l-2.8,4.4h2.8V24.8z"
			/>
		<path class="st2" d="M228.3,24.3h-4l-0.1,2.1c0.2,0,0.3-0.1,0.6-0.1c0.2,0,0.4,0,0.6,0c0.5,0,0.9,0.1,1.4,0.2
			c0.4,0.1,0.8,0.3,1.1,0.6c0.3,0.3,0.5,0.6,0.7,1c0.2,0.4,0.3,0.8,0.3,1.3c0,0.6-0.1,1-0.3,1.5c-0.2,0.4-0.5,0.8-0.8,1.1
			s-0.7,0.5-1.1,0.7c-0.4,0.2-0.9,0.2-1.4,0.2c-0.8,0-1.5-0.2-2.1-0.6c-0.6-0.4-1-0.9-1.2-1.6l1.5-0.6c0.1,0.4,0.4,0.7,0.7,0.9
			s0.7,0.4,1.2,0.4c0.3,0,0.5,0,0.7-0.1s0.4-0.2,0.6-0.4c0.2-0.2,0.3-0.4,0.4-0.6c0.1-0.2,0.1-0.5,0.1-0.8c0-0.4-0.1-0.7-0.2-1
			s-0.3-0.5-0.5-0.6s-0.4-0.3-0.7-0.3c-0.3-0.1-0.5-0.1-0.8-0.1c-0.2,0-0.4,0-0.6,0s-0.4,0.1-0.6,0.1s-0.4,0.1-0.6,0.2
			s-0.4,0.1-0.5,0.2l0.2-5.4h5.6V24.3z"/>
		<path class="st2" d="M236.8,24.3h-4l-0.1,2.1c0.2,0,0.3-0.1,0.6-0.1c0.2,0,0.4,0,0.6,0c0.5,0,0.9,0.1,1.4,0.2
			c0.4,0.1,0.8,0.3,1.1,0.6c0.3,0.3,0.5,0.6,0.7,1c0.2,0.4,0.3,0.8,0.3,1.3c0,0.6-0.1,1-0.3,1.5c-0.2,0.4-0.5,0.8-0.8,1.1
			s-0.7,0.5-1.1,0.7c-0.4,0.2-0.9,0.2-1.4,0.2c-0.8,0-1.5-0.2-2.1-0.6c-0.6-0.4-1-0.9-1.2-1.6l1.5-0.6c0.1,0.4,0.4,0.7,0.7,0.9
			s0.7,0.4,1.2,0.4c0.3,0,0.5,0,0.7-0.1s0.4-0.2,0.6-0.4c0.2-0.2,0.3-0.4,0.4-0.6c0.1-0.2,0.1-0.5,0.1-0.8c0-0.4-0.1-0.7-0.2-1
			s-0.3-0.5-0.5-0.6s-0.4-0.3-0.7-0.3c-0.3-0.1-0.5-0.1-0.8-0.1c-0.2,0-0.4,0-0.6,0s-0.4,0.1-0.6,0.1s-0.4,0.1-0.6,0.2
			s-0.4,0.1-0.5,0.2l0.2-5.4h5.6V24.3z"/>
		<path class="st2" d="M243.2,30.6h-4.6v-1.5l4.2-6.4h2v6.4h1.4v1.4h-1.4v2.1h-1.7V30.6z M243.2,24.8L243.2,24.8l-2.8,4.4h2.8V24.8z
			"/>
	</g>
	<g class="st1">
		<path class="st2" d="M287.4,33.5h-1.7v-4.3h0c-0.2,0.3-0.5,0.6-0.9,0.8c-0.4,0.2-0.8,0.3-1.3,0.3c-0.5,0-1-0.1-1.4-0.3
			c-0.4-0.2-0.8-0.4-1-0.8c-0.3-0.3-0.5-0.7-0.7-1.1c-0.2-0.4-0.2-0.9-0.2-1.4c0-0.5,0.1-1,0.2-1.4c0.2-0.4,0.4-0.8,0.7-1.1
			c0.3-0.3,0.6-0.6,1-0.7c0.4-0.2,0.8-0.3,1.3-0.3c0.3,0,0.6,0,0.8,0.1c0.2,0.1,0.5,0.2,0.7,0.3c0.2,0.1,0.4,0.2,0.5,0.4
			c0.1,0.1,0.2,0.3,0.3,0.4h0v-0.9h1.6V33.5z M281.9,26.7c0,0.3,0,0.5,0.1,0.8c0.1,0.3,0.2,0.5,0.4,0.7c0.2,0.2,0.4,0.4,0.6,0.5
			c0.2,0.1,0.5,0.2,0.9,0.2c0.3,0,0.6-0.1,0.8-0.2s0.5-0.3,0.6-0.5s0.3-0.4,0.4-0.7c0.1-0.3,0.1-0.5,0.1-0.8c0-0.3,0-0.5-0.1-0.8
			c-0.1-0.3-0.2-0.5-0.4-0.7s-0.4-0.4-0.6-0.5s-0.5-0.2-0.8-0.2c-0.3,0-0.6,0.1-0.9,0.2c-0.2,0.1-0.4,0.3-0.6,0.5
			c-0.2,0.2-0.3,0.4-0.4,0.7C281.9,26.2,281.9,26.4,281.9,26.7z"/>
		<path class="st2" d="M293.6,29.2L293.6,29.2c-0.2,0.3-0.5,0.5-0.9,0.7c-0.4,0.2-0.8,0.3-1.3,0.3c-0.3,0-0.6,0-0.8-0.1
			c-0.3-0.1-0.6-0.2-0.8-0.4c-0.2-0.2-0.5-0.4-0.6-0.6c-0.2-0.3-0.2-0.6-0.2-1c0-0.5,0.1-0.9,0.4-1.2s0.7-0.5,1.1-0.7
			c0.4-0.2,0.9-0.3,1.5-0.3c0.5-0.1,1.1-0.1,1.6-0.1v-0.2c0-0.4-0.2-0.7-0.5-0.9c-0.3-0.2-0.7-0.3-1.1-0.3c-0.4,0-0.7,0.1-1,0.2
			s-0.6,0.3-0.8,0.5l-0.9-1c0.4-0.4,0.8-0.6,1.3-0.8c0.5-0.2,1-0.3,1.5-0.3c0.6,0,1.1,0.1,1.5,0.3s0.7,0.4,0.9,0.7s0.4,0.6,0.5,0.9
			c0.1,0.3,0.1,0.7,0.1,1v4.1h-1.6V29.2z M293.5,27h-0.4c-0.3,0-0.6,0-0.9,0c-0.3,0-0.6,0.1-0.8,0.2c-0.3,0.1-0.5,0.2-0.6,0.3
			s-0.3,0.3-0.3,0.6c0,0.2,0,0.3,0.1,0.4c0.1,0.1,0.2,0.2,0.3,0.3c0.1,0.1,0.2,0.1,0.4,0.1c0.1,0,0.3,0,0.4,0c0.6,0,1-0.2,1.3-0.5
			c0.3-0.3,0.4-0.7,0.4-1.3V27z"/>
		<path class="st2" d="M297.1,19.5h1.7v10.6h-1.7V19.5z"/>
		<path class="st2" d="M307.3,26.8c0,0.1,0,0.1,0,0.2c0,0.1,0,0.1,0,0.2h-5.1c0,0.2,0.1,0.5,0.2,0.7c0.1,0.2,0.2,0.4,0.4,0.5
			c0.2,0.1,0.4,0.3,0.6,0.3c0.2,0.1,0.5,0.1,0.7,0.1c0.4,0,0.8-0.1,1.1-0.2c0.3-0.2,0.5-0.4,0.7-0.6l1.1,0.9
			c-0.7,0.9-1.6,1.3-2.9,1.3c-0.5,0-1-0.1-1.4-0.2s-0.8-0.4-1.1-0.7c-0.3-0.3-0.6-0.7-0.8-1.1c-0.2-0.4-0.3-0.9-0.3-1.5
			c0-0.5,0.1-1,0.3-1.5c0.2-0.4,0.4-0.8,0.7-1.1c0.3-0.3,0.7-0.6,1.1-0.7c0.4-0.2,0.9-0.3,1.4-0.3c0.5,0,0.9,0.1,1.3,0.2
			c0.4,0.2,0.7,0.4,1,0.7c0.3,0.3,0.5,0.7,0.7,1.1C307.2,25.7,307.3,26.2,307.3,26.8z M305.6,26.1c0-0.2,0-0.4-0.1-0.6
			c-0.1-0.2-0.2-0.4-0.3-0.5s-0.3-0.3-0.5-0.4c-0.2-0.1-0.4-0.1-0.7-0.1c-0.5,0-0.9,0.2-1.3,0.5c-0.3,0.3-0.5,0.7-0.6,1.2H305.6z"/>
		<path class="st2" d="M315.3,26.8c0,0.1,0,0.1,0,0.2c0,0.1,0,0.1,0,0.2h-5.1c0,0.2,0.1,0.5,0.2,0.7c0.1,0.2,0.2,0.4,0.4,0.5
			c0.2,0.1,0.4,0.3,0.6,0.3c0.2,0.1,0.5,0.1,0.7,0.1c0.4,0,0.8-0.1,1.1-0.2c0.3-0.2,0.5-0.4,0.7-0.6l1.1,0.9
			c-0.7,0.9-1.6,1.3-2.9,1.3c-0.5,0-1-0.1-1.4-0.2s-0.8-0.4-1.1-0.7c-0.3-0.3-0.6-0.7-0.8-1.1c-0.2-0.4-0.3-0.9-0.3-1.5
			c0-0.5,0.1-1,0.3-1.5c0.2-0.4,0.4-0.8,0.7-1.1c0.3-0.3,0.7-0.6,1.1-0.7c0.4-0.2,0.9-0.3,1.4-0.3c0.5,0,0.9,0.1,1.3,0.2
			c0.4,0.2,0.7,0.4,1,0.7c0.3,0.3,0.5,0.7,0.7,1.1C315.2,25.7,315.3,26.2,315.3,26.8z M313.6,26.1c0-0.2,0-0.4-0.1-0.6
			c-0.1-0.2-0.2-0.4-0.3-0.5s-0.3-0.3-0.5-0.4c-0.2-0.1-0.4-0.1-0.7-0.1c-0.5,0-0.9,0.2-1.3,0.5c-0.3,0.3-0.5,0.7-0.6,1.2H313.6z"/>
		<path class="st2" d="M316.9,23.4h1.6v1.1h0c0.1-0.3,0.4-0.6,0.8-0.9c0.4-0.3,0.8-0.4,1.3-0.4c0.4,0,0.8,0.1,1.1,0.2
			c0.3,0.2,0.6,0.4,0.8,0.6c0.2,0.3,0.3,0.5,0.4,0.9c0.1,0.3,0.1,0.7,0.1,1v4.2h-1.7v-3.7c0-0.2,0-0.4,0-0.6s-0.1-0.4-0.2-0.6
			c-0.1-0.2-0.2-0.3-0.4-0.4c-0.2-0.1-0.4-0.2-0.7-0.2s-0.5,0.1-0.7,0.2c-0.2,0.1-0.4,0.2-0.5,0.4c-0.1,0.2-0.2,0.4-0.3,0.6
			c-0.1,0.2-0.1,0.4-0.1,0.7v3.7h-1.7V23.4z"/>
		<path class="st2" d="M324.1,23.4h1.8l1.4,4.8h0l1.4-4.8h1.8l1.5,4.8h0l1.4-4.8h1.8l-2.3,6.7h-1.7l-1.5-4.7h0l-1.5,4.7h-1.7
			L324.1,23.4z"/>
		<path class="st2" d="M342.7,26.8c0,0.1,0,0.1,0,0.2c0,0.1,0,0.1,0,0.2h-5.1c0,0.2,0.1,0.5,0.2,0.7c0.1,0.2,0.2,0.4,0.4,0.5
			c0.2,0.1,0.4,0.3,0.6,0.3c0.2,0.1,0.5,0.1,0.7,0.1c0.4,0,0.8-0.1,1.1-0.2c0.3-0.2,0.5-0.4,0.7-0.6l1.1,0.9
			c-0.7,0.9-1.6,1.3-2.9,1.3c-0.5,0-1-0.1-1.4-0.2s-0.8-0.4-1.1-0.7c-0.3-0.3-0.6-0.7-0.8-1.1c-0.2-0.4-0.3-0.9-0.3-1.5
			c0-0.5,0.1-1,0.3-1.5c0.2-0.4,0.4-0.8,0.7-1.1c0.3-0.3,0.7-0.6,1.1-0.7c0.4-0.2,0.9-0.3,1.4-0.3c0.5,0,0.9,0.1,1.3,0.2
			c0.4,0.2,0.7,0.4,1,0.7c0.3,0.3,0.5,0.7,0.7,1.1C342.7,25.7,342.7,26.2,342.7,26.8z M341.1,26.1c0-0.2,0-0.4-0.1-0.6
			c-0.1-0.2-0.2-0.4-0.3-0.5s-0.3-0.3-0.5-0.4c-0.2-0.1-0.4-0.1-0.7-0.1c-0.5,0-0.9,0.2-1.3,0.5c-0.3,0.3-0.5,0.7-0.6,1.2H341.1z"/>
		<path class="st2" d="M351.2,30.1h-1.6v-1h0c-0.2,0.4-0.6,0.7-1,0.9c-0.4,0.2-0.9,0.3-1.3,0.3c-0.5,0-1-0.1-1.4-0.3
			c-0.4-0.2-0.8-0.4-1-0.8c-0.3-0.3-0.5-0.7-0.7-1.1c-0.2-0.4-0.2-0.9-0.2-1.4c0-0.5,0.1-1,0.2-1.4c0.2-0.4,0.4-0.8,0.7-1.1
			s0.6-0.6,1-0.7c0.4-0.2,0.8-0.3,1.3-0.3c0.3,0,0.6,0,0.8,0.1c0.2,0.1,0.5,0.2,0.6,0.3c0.2,0.1,0.3,0.2,0.5,0.3s0.2,0.2,0.3,0.3h0
			v-4.7h1.7V30.1z M345.7,26.7c0,0.3,0,0.5,0.1,0.8c0.1,0.3,0.2,0.5,0.4,0.7c0.2,0.2,0.4,0.4,0.6,0.5c0.2,0.1,0.5,0.2,0.9,0.2
			c0.3,0,0.6-0.1,0.8-0.2c0.2-0.1,0.5-0.3,0.6-0.5s0.3-0.4,0.4-0.7c0.1-0.3,0.1-0.5,0.1-0.8c0-0.3,0-0.5-0.1-0.8
			c-0.1-0.3-0.2-0.5-0.4-0.7s-0.4-0.4-0.6-0.5c-0.2-0.1-0.5-0.2-0.8-0.2c-0.3,0-0.6,0.1-0.9,0.2c-0.2,0.1-0.4,0.3-0.6,0.5
			c-0.2,0.2-0.3,0.4-0.4,0.7S345.7,26.4,345.7,26.7z"/>
		<path class="st2" d="M360.1,30.1h-1.6v-1h0c-0.2,0.4-0.6,0.7-1,0.9c-0.4,0.2-0.9,0.3-1.3,0.3c-0.5,0-1-0.1-1.4-0.3
			c-0.4-0.2-0.8-0.4-1-0.8c-0.3-0.3-0.5-0.7-0.7-1.1c-0.2-0.4-0.2-0.9-0.2-1.4c0-0.5,0.1-1,0.2-1.4c0.2-0.4,0.4-0.8,0.7-1.1
			s0.6-0.6,1-0.7c0.4-0.2,0.8-0.3,1.3-0.3c0.3,0,0.6,0,0.8,0.1c0.2,0.1,0.5,0.2,0.6,0.3c0.2,0.1,0.3,0.2,0.5,0.3s0.2,0.2,0.3,0.3h0
			v-4.7h1.7V30.1z M354.5,26.7c0,0.3,0,0.5,0.1,0.8c0.1,0.3,0.2,0.5,0.4,0.7c0.2,0.2,0.4,0.4,0.6,0.5c0.2,0.1,0.5,0.2,0.9,0.2
			c0.3,0,0.6-0.1,0.8-0.2c0.2-0.1,0.5-0.3,0.6-0.5s0.3-0.4,0.4-0.7c0.1-0.3,0.1-0.5,0.1-0.8c0-0.3,0-0.5-0.1-0.8
			c-0.1-0.3-0.2-0.5-0.4-0.7s-0.4-0.4-0.6-0.5c-0.2-0.1-0.5-0.2-0.8-0.2c-0.3,0-0.6,0.1-0.9,0.2c-0.2,0.1-0.4,0.3-0.6,0.5
			c-0.2,0.2-0.3,0.4-0.4,0.7S354.5,26.4,354.5,26.7z"/>
		<path class="st2" d="M361.9,21.1c0-0.3,0.1-0.5,0.3-0.7c0.2-0.2,0.5-0.3,0.8-0.3c0.3,0,0.6,0.1,0.8,0.3s0.3,0.4,0.3,0.7
			s-0.1,0.5-0.3,0.7s-0.5,0.3-0.8,0.3c-0.3,0-0.6-0.1-0.8-0.3C362,21.6,361.9,21.4,361.9,21.1z M362.1,23.4h1.7v6.7h-1.7V23.4z"/>
		<path class="st2" d="M365.9,23.4h1.6v1.1h0c0.1-0.3,0.4-0.6,0.8-0.9c0.4-0.3,0.8-0.4,1.3-0.4c0.4,0,0.8,0.1,1.1,0.2
			c0.3,0.2,0.6,0.4,0.8,0.6c0.2,0.3,0.3,0.5,0.4,0.9c0.1,0.3,0.1,0.7,0.1,1v4.2h-1.7v-3.7c0-0.2,0-0.4,0-0.6s-0.1-0.4-0.2-0.6
			c-0.1-0.2-0.2-0.3-0.4-0.4c-0.2-0.1-0.4-0.2-0.7-0.2s-0.5,0.1-0.7,0.2c-0.2,0.1-0.4,0.2-0.5,0.4c-0.1,0.2-0.2,0.4-0.3,0.6
			c-0.1,0.2-0.1,0.4-0.1,0.7v3.7h-1.7V23.4z"/>
		<path class="st2" d="M380.8,23.4v6.1c0,0.6-0.1,1.2-0.2,1.6c-0.1,0.5-0.4,0.9-0.7,1.2s-0.7,0.6-1.2,0.8c-0.5,0.2-1,0.3-1.7,0.3
			c-0.3,0-0.6,0-0.9-0.1c-0.3,0-0.6-0.1-0.9-0.2c-0.3-0.1-0.6-0.2-0.8-0.3c-0.3-0.1-0.5-0.3-0.7-0.5l1-1.3c0.3,0.3,0.7,0.5,1.1,0.7
			c0.4,0.2,0.8,0.2,1.2,0.2c0.4,0,0.7-0.1,1-0.2s0.5-0.3,0.7-0.5c0.2-0.2,0.3-0.4,0.3-0.7s0.1-0.6,0.1-0.9v-0.5h0
			c-0.2,0.3-0.6,0.6-0.9,0.8c-0.4,0.2-0.8,0.3-1.3,0.3c-0.5,0-1-0.1-1.4-0.3c-0.4-0.2-0.8-0.4-1-0.8c-0.3-0.3-0.5-0.7-0.7-1.1
			c-0.2-0.4-0.2-0.9-0.2-1.4c0-0.5,0.1-0.9,0.2-1.4c0.2-0.4,0.4-0.8,0.7-1.1c0.3-0.3,0.6-0.6,1-0.8c0.4-0.2,0.9-0.3,1.4-0.3
			c0.5,0,0.9,0.1,1.3,0.3c0.4,0.2,0.7,0.5,1,0.9h0v-1H380.8z M377.3,24.5c-0.3,0-0.6,0.1-0.8,0.2c-0.2,0.1-0.4,0.3-0.6,0.5
			c-0.2,0.2-0.3,0.4-0.4,0.7c-0.1,0.3-0.1,0.5-0.1,0.8c0,0.3,0,0.5,0.1,0.8c0.1,0.3,0.2,0.5,0.4,0.7c0.2,0.2,0.4,0.4,0.6,0.5
			c0.2,0.1,0.5,0.2,0.8,0.2c0.3,0,0.6-0.1,0.8-0.2c0.2-0.1,0.5-0.3,0.6-0.5c0.2-0.2,0.3-0.4,0.4-0.7c0.1-0.3,0.1-0.5,0.1-0.8
			c0-0.3,0-0.6-0.1-0.8c-0.1-0.3-0.2-0.5-0.4-0.7c-0.2-0.2-0.4-0.3-0.6-0.5C377.8,24.6,377.6,24.5,377.3,24.5z"/>
		<path class="st2" d="M386.5,25.2c-0.1-0.2-0.4-0.4-0.6-0.5c-0.3-0.1-0.5-0.2-0.9-0.2c-0.3,0-0.5,0.1-0.7,0.2
			c-0.2,0.1-0.3,0.3-0.3,0.6c0,0.3,0.1,0.4,0.4,0.6c0.2,0.1,0.6,0.2,1.1,0.3c0.3,0.1,0.5,0.1,0.8,0.2c0.3,0.1,0.5,0.2,0.7,0.4
			s0.4,0.3,0.5,0.6s0.2,0.5,0.2,0.8c0,0.4-0.1,0.8-0.2,1c-0.2,0.3-0.4,0.5-0.6,0.7c-0.3,0.2-0.6,0.3-0.9,0.4s-0.7,0.1-1.1,0.1
			c-0.5,0-1-0.1-1.5-0.3c-0.5-0.2-0.9-0.5-1.2-0.8l1.1-1c0.2,0.2,0.4,0.4,0.7,0.6c0.3,0.2,0.6,0.2,1,0.2c0.1,0,0.2,0,0.4,0
			c0.1,0,0.2-0.1,0.3-0.1c0.1-0.1,0.2-0.1,0.3-0.2c0.1-0.1,0.1-0.2,0.1-0.4c0-0.3-0.1-0.5-0.4-0.6s-0.6-0.2-1.2-0.4
			c-0.3-0.1-0.5-0.1-0.7-0.2c-0.2-0.1-0.5-0.2-0.6-0.3c-0.2-0.1-0.3-0.3-0.4-0.5c-0.1-0.2-0.2-0.5-0.2-0.8c0-0.4,0.1-0.7,0.2-1
			c0.2-0.3,0.4-0.5,0.6-0.7c0.3-0.2,0.5-0.3,0.9-0.4s0.6-0.1,1-0.1c0.5,0,1,0.1,1.4,0.3s0.8,0.4,1.1,0.8L386.5,25.2z"/>
		<path class="st2" d="M398.2,28.6c-0.6,0.6-1.2,1-2,1.3s-1.6,0.4-2.4,0.4c-0.8,0-1.5-0.1-2.2-0.4s-1.2-0.6-1.7-1.1s-0.8-1-1.1-1.6
			c-0.3-0.6-0.4-1.3-0.4-2.1c0-0.7,0.1-1.4,0.4-2.1c0.3-0.6,0.7-1.2,1.1-1.7s1.1-0.8,1.7-1.1c0.6-0.3,1.3-0.4,2.1-0.4
			c0.6,0,1.2,0.1,1.8,0.3s1.1,0.5,1.6,0.8s0.8,0.8,1.1,1.4c0.3,0.6,0.4,1.2,0.4,2c0,0.6-0.1,1.1-0.2,1.5c-0.2,0.4-0.4,0.8-0.6,1.1
			c-0.3,0.3-0.6,0.5-0.9,0.7s-0.7,0.2-1,0.2c-0.4,0-0.7-0.1-0.9-0.3c-0.2-0.2-0.3-0.4-0.3-0.7h-0.1c-0.1,0.2-0.4,0.4-0.6,0.6
			c-0.3,0.2-0.6,0.3-1.1,0.3c-0.6,0-1.1-0.2-1.5-0.6c-0.3-0.4-0.5-1-0.5-1.6c0-0.4,0.1-0.8,0.2-1.2s0.3-0.7,0.6-1
			c0.2-0.3,0.5-0.5,0.9-0.7s0.7-0.3,1.1-0.3c0.4,0,0.7,0.1,0.9,0.2c0.2,0.1,0.4,0.3,0.5,0.5h0l0.1-0.6h1.2l-0.5,2.6
			c0,0.1,0,0.3-0.1,0.4c0,0.2,0,0.3,0,0.4c0,0.2,0,0.3,0.1,0.4s0.2,0.2,0.4,0.2c0.4,0,0.7-0.2,0.9-0.6c0.2-0.4,0.4-0.9,0.4-1.6
			c0-0.6-0.1-1.1-0.3-1.5c-0.2-0.4-0.4-0.8-0.8-1.1c-0.3-0.3-0.7-0.5-1.2-0.7s-1-0.2-1.5-0.2c-0.6,0-1.1,0.1-1.6,0.3
			c-0.5,0.2-0.9,0.5-1.3,0.9c-0.3,0.4-0.6,0.8-0.8,1.3s-0.3,1-0.3,1.6c0,0.6,0.1,1.2,0.3,1.7c0.2,0.5,0.5,0.9,0.8,1.3
			c0.4,0.4,0.8,0.6,1.3,0.8c0.5,0.2,1.1,0.3,1.7,0.3c0.8,0,1.4-0.1,2-0.4c0.5-0.2,1-0.6,1.5-1L398.2,28.6z M393.8,23.6
			c-0.2,0-0.4,0.1-0.6,0.2s-0.3,0.3-0.4,0.5c-0.1,0.2-0.2,0.4-0.3,0.7c-0.1,0.2-0.1,0.5-0.1,0.7c0,0.1,0,0.2,0,0.4s0.1,0.2,0.1,0.3
			c0.1,0.1,0.2,0.2,0.3,0.3s0.3,0.1,0.4,0.1c0.3,0,0.5-0.1,0.6-0.2c0.2-0.1,0.3-0.3,0.4-0.5c0.1-0.2,0.2-0.4,0.2-0.6
			c0.1-0.2,0.1-0.4,0.1-0.6c0-0.1,0-0.3,0-0.4c0-0.1-0.1-0.3-0.1-0.4c-0.1-0.1-0.2-0.2-0.3-0.3C394.2,23.6,394,23.6,393.8,23.6z"/>
		<path class="st2" d="M407.1,23.4v6.1c0,0.6-0.1,1.2-0.2,1.6c-0.1,0.5-0.4,0.9-0.7,1.2s-0.7,0.6-1.2,0.8c-0.5,0.2-1,0.3-1.7,0.3
			c-0.3,0-0.6,0-0.9-0.1c-0.3,0-0.6-0.1-0.9-0.2c-0.3-0.1-0.6-0.2-0.8-0.3c-0.3-0.1-0.5-0.3-0.7-0.5l1-1.3c0.3,0.3,0.7,0.5,1.1,0.7
			c0.4,0.2,0.8,0.2,1.2,0.2c0.4,0,0.7-0.1,1-0.2s0.5-0.3,0.7-0.5c0.2-0.2,0.3-0.4,0.3-0.7s0.1-0.6,0.1-0.9v-0.5h0
			c-0.2,0.3-0.6,0.6-0.9,0.8c-0.4,0.2-0.8,0.3-1.3,0.3c-0.5,0-1-0.1-1.4-0.3c-0.4-0.2-0.8-0.4-1-0.8c-0.3-0.3-0.5-0.7-0.7-1.1
			c-0.2-0.4-0.2-0.9-0.2-1.4c0-0.5,0.1-0.9,0.2-1.4c0.2-0.4,0.4-0.8,0.7-1.1c0.3-0.3,0.6-0.6,1-0.8c0.4-0.2,0.9-0.3,1.4-0.3
			c0.5,0,0.9,0.1,1.3,0.3c0.4,0.2,0.7,0.5,1,0.9h0v-1H407.1z M403.5,24.5c-0.3,0-0.6,0.1-0.8,0.2c-0.2,0.1-0.4,0.3-0.6,0.5
			c-0.2,0.2-0.3,0.4-0.4,0.7c-0.1,0.3-0.1,0.5-0.1,0.8c0,0.3,0,0.5,0.1,0.8c0.1,0.3,0.2,0.5,0.4,0.7c0.2,0.2,0.4,0.4,0.6,0.5
			c0.2,0.1,0.5,0.2,0.8,0.2c0.3,0,0.6-0.1,0.8-0.2c0.2-0.1,0.5-0.3,0.6-0.5c0.2-0.2,0.3-0.4,0.4-0.7c0.1-0.3,0.1-0.5,0.1-0.8
			c0-0.3,0-0.6-0.1-0.8c-0.1-0.3-0.2-0.5-0.4-0.7c-0.2-0.2-0.4-0.3-0.6-0.5C404.1,24.6,403.8,24.5,403.5,24.5z"/>
		<path class="st2" d="M417.1,23.2c0.4,0,0.8,0.1,1.1,0.2c0.3,0.2,0.6,0.4,0.8,0.6c0.2,0.3,0.3,0.5,0.4,0.9c0.1,0.3,0.1,0.7,0.1,1
			v4.2h-1.7v-3.7c0-0.2,0-0.4,0-0.6c0-0.2-0.1-0.4-0.2-0.6c-0.1-0.2-0.2-0.3-0.4-0.4c-0.2-0.1-0.4-0.2-0.7-0.2
			c-0.3,0-0.5,0.1-0.7,0.2c-0.2,0.1-0.3,0.3-0.5,0.4c-0.1,0.2-0.2,0.4-0.3,0.6c-0.1,0.2-0.1,0.4-0.1,0.7v3.7h-1.7V26
			c0-0.4-0.1-0.8-0.3-1c-0.2-0.3-0.5-0.4-0.9-0.4c-0.3,0-0.5,0.1-0.7,0.2c-0.2,0.1-0.3,0.2-0.5,0.4c-0.1,0.2-0.2,0.4-0.3,0.6
			c-0.1,0.2-0.1,0.4-0.1,0.7v3.7h-1.7v-6.7h1.6v1.1h0c0.1-0.2,0.2-0.3,0.3-0.5s0.3-0.3,0.4-0.4c0.2-0.1,0.4-0.2,0.6-0.3
			c0.2-0.1,0.5-0.1,0.7-0.1c0.5,0,1,0.1,1.3,0.3c0.3,0.2,0.6,0.5,0.8,0.9c0.2-0.4,0.5-0.7,0.9-0.9S416.6,23.2,417.1,23.2z"/>
		<path class="st2" d="M425.8,29.2L425.8,29.2c-0.2,0.3-0.5,0.5-0.9,0.7c-0.4,0.2-0.8,0.3-1.3,0.3c-0.3,0-0.6,0-0.8-0.1
			c-0.3-0.1-0.6-0.2-0.8-0.4s-0.5-0.4-0.6-0.6c-0.2-0.3-0.2-0.6-0.2-1c0-0.5,0.1-0.9,0.4-1.2c0.3-0.3,0.7-0.5,1.1-0.7
			c0.4-0.2,0.9-0.3,1.5-0.3c0.5-0.1,1.1-0.1,1.6-0.1v-0.2c0-0.4-0.2-0.7-0.5-0.9c-0.3-0.2-0.7-0.3-1.1-0.3c-0.4,0-0.7,0.1-1,0.2
			c-0.3,0.1-0.6,0.3-0.8,0.5l-0.9-1c0.4-0.4,0.8-0.6,1.3-0.8c0.5-0.2,1-0.3,1.5-0.3c0.6,0,1.1,0.1,1.5,0.3c0.4,0.2,0.7,0.4,0.9,0.7
			c0.2,0.3,0.4,0.6,0.5,0.9c0.1,0.3,0.1,0.7,0.1,1v4.1h-1.6V29.2z M425.7,27h-0.4c-0.3,0-0.6,0-0.9,0c-0.3,0-0.6,0.1-0.8,0.2
			s-0.5,0.2-0.6,0.3s-0.3,0.3-0.3,0.6c0,0.2,0,0.3,0.1,0.4c0.1,0.1,0.2,0.2,0.3,0.3s0.2,0.1,0.4,0.1c0.1,0,0.3,0,0.4,0
			c0.6,0,1-0.2,1.3-0.5c0.3-0.3,0.4-0.7,0.4-1.3V27z"/>
		<path class="st2" d="M429.1,21.1c0-0.3,0.1-0.5,0.3-0.7c0.2-0.2,0.5-0.3,0.8-0.3s0.6,0.1,0.8,0.3s0.3,0.4,0.3,0.7
			s-0.1,0.5-0.3,0.7s-0.5,0.3-0.8,0.3s-0.6-0.1-0.8-0.3C429.2,21.6,429.1,21.4,429.1,21.1z M429.3,23.4h1.7v6.7h-1.7V23.4z"/>
		<path class="st2" d="M433.1,19.5h1.7v10.6h-1.7V19.5z"/>
		<path class="st2" d="M436.5,29.1c0-0.3,0.1-0.6,0.3-0.8c0.2-0.2,0.5-0.3,0.8-0.3c0.3,0,0.6,0.1,0.8,0.3c0.2,0.2,0.3,0.5,0.3,0.8
			s-0.1,0.6-0.3,0.8c-0.2,0.2-0.5,0.3-0.8,0.3c-0.1,0-0.3,0-0.4-0.1c-0.1-0.1-0.3-0.1-0.4-0.2c-0.1-0.1-0.2-0.2-0.2-0.3
			S436.5,29.3,436.5,29.1z"/>
		<path class="st2" d="M445,25.2c-0.1-0.2-0.3-0.3-0.6-0.5c-0.3-0.1-0.5-0.2-0.8-0.2c-0.3,0-0.6,0.1-0.8,0.2s-0.4,0.3-0.6,0.5
			c-0.2,0.2-0.3,0.4-0.3,0.7c-0.1,0.3-0.1,0.5-0.1,0.8c0,0.3,0,0.5,0.1,0.8s0.2,0.5,0.4,0.7c0.2,0.2,0.4,0.4,0.6,0.5
			c0.2,0.1,0.5,0.2,0.8,0.2c0.3,0,0.5-0.1,0.8-0.2c0.3-0.1,0.5-0.3,0.6-0.4l1,1.1c-0.3,0.3-0.6,0.5-1.1,0.7
			c-0.4,0.2-0.9,0.2-1.4,0.2c-0.5,0-1-0.1-1.4-0.2s-0.8-0.4-1.2-0.7c-0.3-0.3-0.6-0.7-0.8-1.1c-0.2-0.4-0.3-0.9-0.3-1.5
			c0-0.5,0.1-1,0.3-1.5s0.5-0.8,0.8-1.1c0.3-0.3,0.7-0.5,1.1-0.7c0.4-0.2,0.9-0.3,1.4-0.3c0.5,0,1,0.1,1.4,0.3s0.8,0.4,1.1,0.8
			L445,25.2z"/>
		<path class="st2" d="M446.9,26.7c0-0.5,0.1-1,0.3-1.4c0.2-0.4,0.5-0.8,0.8-1.1c0.3-0.3,0.7-0.5,1.2-0.7c0.4-0.2,0.9-0.3,1.4-0.3
			s1,0.1,1.4,0.3s0.8,0.4,1.2,0.7c0.3,0.3,0.6,0.7,0.8,1.1c0.2,0.4,0.3,0.9,0.3,1.4c0,0.5-0.1,1-0.3,1.5c-0.2,0.4-0.5,0.8-0.8,1.1
			c-0.3,0.3-0.7,0.6-1.2,0.7c-0.4,0.2-0.9,0.3-1.4,0.3s-1-0.1-1.4-0.3c-0.4-0.2-0.8-0.4-1.2-0.7c-0.3-0.3-0.6-0.7-0.8-1.1
			S446.9,27.2,446.9,26.7z M448.6,26.7c0,0.3,0,0.5,0.1,0.8c0.1,0.3,0.2,0.5,0.4,0.7c0.2,0.2,0.4,0.4,0.6,0.5
			c0.2,0.1,0.5,0.2,0.9,0.2s0.6-0.1,0.9-0.2c0.2-0.1,0.4-0.3,0.6-0.5c0.2-0.2,0.3-0.4,0.4-0.7c0.1-0.3,0.1-0.5,0.1-0.8
			c0-0.3,0-0.5-0.1-0.8c-0.1-0.3-0.2-0.5-0.4-0.7c-0.2-0.2-0.4-0.4-0.6-0.5c-0.2-0.1-0.5-0.2-0.9-0.2s-0.6,0.1-0.9,0.2
			c-0.2,0.1-0.4,0.3-0.6,0.5c-0.2,0.2-0.3,0.4-0.4,0.7S448.6,26.4,448.6,26.7z"/>
		<path class="st2" d="M463.8,23.2c0.4,0,0.8,0.1,1.1,0.2c0.3,0.2,0.6,0.4,0.8,0.6c0.2,0.3,0.3,0.5,0.4,0.9c0.1,0.3,0.1,0.7,0.1,1
			v4.2h-1.7v-3.7c0-0.2,0-0.4,0-0.6s-0.1-0.4-0.2-0.6c-0.1-0.2-0.2-0.3-0.4-0.4c-0.2-0.1-0.4-0.2-0.7-0.2c-0.3,0-0.5,0.1-0.7,0.2
			c-0.2,0.1-0.3,0.3-0.5,0.4c-0.1,0.2-0.2,0.4-0.3,0.6c-0.1,0.2-0.1,0.4-0.1,0.7v3.7h-1.7V26c0-0.4-0.1-0.8-0.3-1
			c-0.2-0.3-0.5-0.4-0.9-0.4c-0.3,0-0.5,0.1-0.7,0.2c-0.2,0.1-0.3,0.2-0.5,0.4c-0.1,0.2-0.2,0.4-0.3,0.6c-0.1,0.2-0.1,0.4-0.1,0.7
			v3.7h-1.7v-6.7h1.6v1.1h0c0.1-0.2,0.2-0.3,0.3-0.5s0.3-0.3,0.4-0.4c0.2-0.1,0.4-0.2,0.6-0.3c0.2-0.1,0.5-0.1,0.7-0.1
			c0.5,0,1,0.1,1.3,0.3c0.3,0.2,0.6,0.5,0.8,0.9c0.2-0.4,0.5-0.7,0.9-0.9C462.9,23.3,463.3,23.2,463.8,23.2z"/>
	</g>
	<path class="st2" d="M82.3,7.4c0.2-0.1,0.3-0.2,0.4-0.3c0.1-0.2,0.2-0.4,0.3-0.6c-0.2-0.1-0.4-0.3-0.6-0.3
		c-0.6-0.1-1.2,0.1-1.7,0.6c-0.8,0.8-1.6,0.9-2.6,0.4c-0.7-0.4-1.5-0.8-2.3-1.2c1.2-0.8,2.3-1.6,3.7-1.5c0.4,0,0.8,0.4,1.2,0.7
		c0.5,0.4,1.1,0.7,1.8,0.6c0.2,0,0.5-0.2,0.5-0.3c0-0.2-0.2-0.4-0.3-0.6c-0.1-0.1-0.2-0.2-0.4-0.3C82.9,4.2,83.4,4,84,4.3
		c0.7,0.4,1.3,1,1.9,1.4C85.2,7.2,83.6,7.9,82.3,7.4L82.3,7.4z"/>
	<path class="st2" d="M54.1,5.7c0.9-0.4,1.8-0.8,2.7-1.2c0.8-0.3,1.5,0,2.2,0.6c0.5,0.5,1.1,0.7,1.8,0.6c0.2,0,0.5-0.2,0.5-0.3
		c0-0.2-0.1-0.4-0.3-0.6c-0.1-0.1-0.3-0.2-0.4-0.3C61.6,3.9,63,4.4,64,5.9c-1,1.5-2.3,2-3.5,1.4c0.1-0.1,0.3-0.2,0.4-0.3
		c0.1-0.2,0.3-0.4,0.3-0.6c0-0.2-0.3-0.3-0.5-0.3C60,6,59.4,6.2,58.9,6.7c-0.8,0.8-1.6,0.9-2.6,0.4c-0.8-0.4-1.5-0.8-2.3-1.2
		C54.1,5.9,54.1,5.8,54.1,5.7L54.1,5.7z"/>
	<path class="st2" d="M97,5.9c1-0.8,2-1.3,3.2-1.6c0.7-0.1,1.1,0.2,1.7,0.6c0.4,0.3,0.9,0.5,1.3,0.7c0.3,0.1,0.8-0.1,0.9-0.3
		c0.3-0.4-0.2-0.6-0.5-0.8c-0.1-0.1-0.1-0.1-0.2-0.2c1.2-0.6,2.5,0,3.5,1.4c-1,1.5-2.4,2-3.5,1.4c0.2-0.1,0.3-0.2,0.4-0.4
		c0.1-0.2,0.3-0.4,0.2-0.5c0-0.2-0.3-0.3-0.5-0.3c-0.7-0.1-1.3,0.1-1.8,0.6c-0.8,0.8-1.7,0.9-2.6,0.4C98.5,6.8,97.8,6.4,97,5.9
		L97,5.9z"/>
	<path class="st2" d="M25,7.4c-1.2,0.6-2.5,0-3.6-1.5c0.7-0.7,1.3-1.3,2.2-1.6c0.4-0.1,0.9,0,1.4,0.1c0,0.1,0,0.1,0,0.2
		c-0.1,0.1-0.2,0.2-0.3,0.3c-0.1,0.2-0.2,0.4-0.4,0.6c0.2,0.1,0.4,0.3,0.6,0.3c0.5-0.1,1.1-0.1,1.4-0.4c1.1-1.2,2.3-1,3.5-0.4
		c0.5,0.3,1,0.6,1.6,1c-1.1,0.7-2.1,1.4-3.4,1.6c-0.4,0-1-0.3-1.4-0.6c-0.5-0.4-1-0.7-1.7-0.7c-0.3,0-0.5,0.2-0.8,0.4
		c0.1,0.2,0.3,0.4,0.4,0.6C24.7,7.2,24.8,7.3,25,7.4L25,7.4z"/>
	<path class="st2" d="M10.5,5.8c0.9-0.4,1.7-0.8,2.6-1.2c0.9-0.4,1.6-0.1,2.2,0.6c0.4,0.5,1,0.7,1.6,0.6c0.2,0,0.4-0.2,0.6-0.4
		c-0.1-0.2-0.2-0.4-0.4-0.6c-0.1-0.1-0.2-0.2-0.3-0.2c1-0.7,1.9-0.4,3.5,1.4c-0.8,1.3-2.3,2-3.5,1.5c0.2-0.2,0.4-0.3,0.5-0.4
		c0.3-0.3,0.3-0.6-0.2-0.8c-0.6-0.2-1.2,0-1.7,0.4c-0.2,0.2-0.4,0.4-0.7,0.5c-0.4,0.3-1,0.5-1.5,0.3c-1-0.4-1.9-0.9-2.9-1.3
		C10.5,5.9,10.5,5.8,10.5,5.8L10.5,5.8z"/>
	<path class="st2" d="M47,4.5c-0.2,0.2-0.4,0.3-0.5,0.4c-0.3,0.3-0.3,0.6,0.2,0.7c0.7,0.2,1.3,0.1,1.8-0.4c1.2-1.3,2.4-0.8,3.6-0.2
		c0.5,0.2,0.9,0.6,1.4,0.9c-1,0.7-2.1,1.4-3.3,1.6c-0.6,0.1-1.1-0.4-1.6-0.7c-0.5-0.3-1-0.5-1.5-0.6c-0.2-0.1-0.5,0.2-0.8,0.3
		c0.1,0.2,0.3,0.4,0.4,0.6c0.1,0.1,0.2,0.2,0.3,0.2c-1.2,0.6-1.9,0.3-3.6-1.4C44.4,4.5,45.8,3.9,47,4.5z"/>
	<path class="st2" d="M96.6,5.9c-1.1,0.5-2,1-3,1.4c-0.8,0.3-1.4,0-2-0.6c-0.4-0.4-1-0.7-1.6-0.6c-0.3,0-0.5,0.2-0.8,0.4
		c0.2,0.2,0.3,0.4,0.4,0.6c0.1,0.1,0.2,0.2,0.3,0.3c-0.8,0.4-1.5,0.4-2.2-0.2c-0.4-0.3-0.8-0.6-1.1-0.9c-0.3-0.2-0.2-0.4,0-0.7
		c0.4-0.3,0.8-0.7,1.2-1c0.6-0.5,1.3-0.5,2-0.1c-0.2,0.2-0.4,0.3-0.5,0.5c-0.3,0.3-0.2,0.6,0.2,0.7c0.7,0.2,1.3,0.1,1.8-0.4
		c1-1.2,2.2-1,3.4-0.4C95.4,5.1,95.9,5.5,96.6,5.9z"/>
	<path class="st2" d="M31.9,6c1.1-0.8,2-1.3,3.1-1.5c0.7-0.2,1.2,0.1,1.8,0.6c0.4,0.3,1,0.5,1.5,0.7c0.2,0.1,0.4,0,0.6-0.1
		c0.4-0.1,0.5-0.4,0.2-0.7c-0.2-0.2-0.3-0.3-0.5-0.4c1.1-0.6,2.3-0.1,3.5,1.4c-0.9,1.4-2.2,2-3.6,1.5c0.2-0.2,0.4-0.3,0.5-0.4
		c0.4-0.4,0.3-0.7-0.2-0.8C38,6,37.4,6.2,36.9,6.7c-0.2,0.2-0.4,0.4-0.6,0.5c-0.5,0.3-1,0.4-1.5,0.2C33.9,6.9,32.9,6.5,31.9,6
		L31.9,6z"/>
	<path class="st2" d="M3.5,4.5C3.3,4.6,3.2,4.7,3.2,4.8C3,5,2.9,5.2,2.8,5.4C3,5.5,3.2,5.7,3.4,5.7c0.5-0.1,1.1-0.1,1.4-0.4
		c1.1-1.2,2.2-1,3.5-0.4c0.6,0.3,1.1,0.6,1.8,1.1c-1.1,0.5-2.1,1-3,1.4C6.4,7.7,5.8,7.3,5.2,6.8C4.8,6.5,4.3,6.3,3.9,6.1
		c-0.2-0.1-0.5,0-0.7,0C3.1,6.2,2.8,6.3,2.8,6.5c0,0.1,0.1,0.3,0.2,0.5c0.1,0.2,0.3,0.3,0.5,0.4C2.7,7.8,2,7.7,1.3,7.2
		C1.2,7.1,1.1,7,1,6.9c-1.3-1.1-1.3-0.8,0-2C1.7,4.3,2.5,3.8,3.5,4.5z"/>
	<path class="st2" d="M65.3,5.9c1.2-1.5,2.3-2,3.5-1.4c-0.2,0.2-0.4,0.3-0.5,0.4c-0.3,0.3-0.3,0.6,0.2,0.7c0.6,0.2,1.3,0.1,1.7-0.4
		c1.1-1.2,2.3-0.9,3.5-0.3c0.5,0.3,1,0.6,1.6,1c-1,0.7-2,1.3-3.2,1.6c-0.7,0.2-1.1-0.3-1.6-0.6c-0.4-0.3-0.9-0.5-1.5-0.7
		c-0.3-0.1-0.6,0.2-0.9,0.3c0.2,0.2,0.3,0.5,0.5,0.7c0.1,0.1,0.1,0.1,0.2,0.2C67.8,8,66.9,7.6,65.3,5.9L65.3,5.9z"/>
	<path class="st2" d="M190.9,7.4c0.2-0.1,0.3-0.2,0.4-0.3c0.1-0.2,0.2-0.4,0.3-0.6c-0.2-0.1-0.4-0.3-0.6-0.3
		c-0.6-0.1-1.2,0.1-1.7,0.6c-0.8,0.8-1.6,0.9-2.6,0.4c-0.7-0.4-1.5-0.8-2.3-1.2c1.2-0.8,2.3-1.6,3.7-1.5c0.4,0,0.9,0.4,1.2,0.7
		c0.5,0.4,1.1,0.7,1.8,0.6c0.2,0,0.5-0.2,0.5-0.3c0-0.2-0.2-0.4-0.3-0.6c-0.1-0.1-0.2-0.2-0.4-0.3c0.6-0.2,1.1-0.5,1.7-0.1
		c0.7,0.4,1.3,1,1.9,1.4C193.8,7.2,192.2,7.9,190.9,7.4L190.9,7.4z"/>
	<path class="st2" d="M162.7,5.8c0.9-0.4,1.8-0.8,2.7-1.2c0.9-0.3,1.6,0,2.2,0.6c0.5,0.5,1.1,0.7,1.8,0.6c0.2,0,0.5-0.2,0.5-0.3
		c0-0.2-0.1-0.4-0.3-0.6c-0.1-0.1-0.3-0.2-0.4-0.3c1.1-0.6,2.5-0.1,3.5,1.4c-1,1.5-2.3,2-3.6,1.4c0.1-0.1,0.3-0.2,0.4-0.3
		c0.1-0.2,0.3-0.4,0.3-0.6c-0.1-0.2-0.3-0.3-0.5-0.3c-0.7-0.1-1.3,0.1-1.7,0.6c-0.8,0.8-1.6,0.9-2.6,0.4c-0.8-0.4-1.5-0.8-2.3-1.2
		C162.7,5.9,162.7,5.9,162.7,5.8L162.7,5.8z"/>
	<path class="st2" d="M205.6,6c1-0.8,2-1.3,3.2-1.6c0.7-0.1,1.1,0.2,1.6,0.6c0.4,0.3,0.9,0.5,1.4,0.7c0.3,0.1,0.8-0.1,0.9-0.3
		c0.3-0.4-0.2-0.6-0.5-0.8c-0.1-0.1-0.1-0.1-0.2-0.2c1.2-0.6,2.5,0,3.5,1.4c-1,1.5-2.4,2-3.5,1.4c0.2-0.1,0.3-0.2,0.4-0.4
		c0.1-0.2,0.3-0.4,0.2-0.5c0-0.2-0.3-0.3-0.5-0.3c-0.7-0.1-1.3,0.1-1.8,0.6c-0.8,0.8-1.6,0.9-2.6,0.4C207.2,6.8,206.4,6.5,205.6,6
		L205.6,6z"/>
	<path class="st2" d="M133.6,7.4c-1.2,0.6-2.5,0-3.6-1.5c0.7-0.7,1.3-1.3,2.2-1.6c0.4-0.1,0.9,0,1.4,0.1c0,0.1,0,0.1,0,0.2
		c-0.1,0.1-0.2,0.2-0.3,0.3c-0.1,0.2-0.2,0.4-0.4,0.6c0.2,0.1,0.4,0.3,0.6,0.3c0.5-0.1,1.1-0.1,1.4-0.4c1.1-1.2,2.3-1,3.5-0.4
		c0.5,0.3,1,0.6,1.6,1c-1.1,0.7-2.1,1.4-3.4,1.6c-0.4,0-1-0.3-1.4-0.6c-0.5-0.4-1-0.7-1.7-0.7c-0.3,0-0.5,0.2-0.8,0.4
		c0.1,0.2,0.3,0.4,0.4,0.6C133.3,7.3,133.4,7.3,133.6,7.4L133.6,7.4z"/>
	<path class="st2" d="M119.2,5.8c0.9-0.4,1.7-0.8,2.6-1.2c0.9-0.4,1.6-0.1,2.2,0.6c0.4,0.5,1,0.7,1.7,0.6c0.2,0,0.4-0.2,0.7-0.4
		c-0.1-0.2-0.2-0.4-0.4-0.6c-0.1-0.1-0.2-0.2-0.3-0.2c1-0.7,1.9-0.4,3.5,1.4c-0.8,1.3-2.3,2-3.5,1.5c0.2-0.2,0.4-0.3,0.5-0.4
		c0.3-0.3,0.3-0.6-0.2-0.8c-0.6-0.2-1.2,0-1.7,0.4c-0.2,0.2-0.4,0.4-0.7,0.5c-0.4,0.3-1,0.5-1.5,0.3c-1-0.4-1.9-0.9-2.9-1.3
		C119.2,6,119.2,5.9,119.2,5.8L119.2,5.8z"/>
	<path class="st2" d="M155.7,4.5c-0.2,0.2-0.4,0.3-0.5,0.4c-0.3,0.3-0.3,0.6,0.2,0.7c0.6,0.2,1.3,0.1,1.8-0.4
		c1.2-1.3,2.4-0.8,3.6-0.2c0.5,0.2,0.9,0.6,1.4,0.9c-1.1,0.7-2.1,1.4-3.3,1.6c-0.6,0.1-1.1-0.4-1.6-0.7c-0.5-0.3-1-0.5-1.5-0.6
		c-0.2-0.1-0.5,0.2-0.8,0.3c0.1,0.2,0.3,0.4,0.4,0.6c0.1,0.1,0.2,0.2,0.3,0.2c-1.2,0.6-1.9,0.3-3.6-1.4C153.1,4.6,154.4,4,155.7,4.5
		L155.7,4.5z"/>
	<path class="st2" d="M205.3,6c-1.1,0.5-2,1-3,1.4c-0.8,0.3-1.4,0-2-0.6c-0.4-0.4-1-0.7-1.6-0.6c-0.3,0-0.5,0.2-0.8,0.4
		c0.1,0.2,0.3,0.4,0.4,0.6c0.1,0.1,0.2,0.2,0.3,0.3c-0.8,0.4-1.5,0.4-2.2-0.2c-0.4-0.3-0.8-0.6-1.1-0.9c-0.3-0.2-0.2-0.4,0-0.7
		c0.4-0.3,0.8-0.7,1.2-1c0.6-0.5,1.3-0.5,2-0.1c-0.2,0.2-0.4,0.3-0.5,0.5c-0.3,0.3-0.2,0.6,0.2,0.7c0.6,0.2,1.3,0.1,1.8-0.4
		c1-1.2,2.2-1,3.4-0.4C204,5.2,204.5,5.5,205.3,6L205.3,6z"/>
	<path class="st2" d="M140.5,6c1.1-0.8,2-1.3,3.1-1.5c0.7-0.2,1.2,0.1,1.8,0.6c0.4,0.3,0.9,0.5,1.4,0.7c0.2,0.1,0.4,0,0.6-0.1
		c0.4-0.1,0.5-0.4,0.2-0.7c-0.1-0.2-0.3-0.3-0.5-0.4c1.1-0.6,2.4-0.1,3.5,1.4c-0.9,1.4-2.2,2-3.6,1.5c0.2-0.2,0.4-0.3,0.5-0.4
		c0.4-0.4,0.3-0.7-0.2-0.8c-0.7-0.2-1.3,0.1-1.8,0.5c-0.2,0.2-0.4,0.4-0.6,0.5c-0.4,0.3-0.9,0.4-1.5,0.2C142.5,7,141.5,6.5,140.5,6
		L140.5,6z"/>
	<path class="st2" d="M112.1,4.5c-0.1,0.1-0.3,0.2-0.3,0.3c-0.1,0.2-0.2,0.4-0.3,0.6c0.2,0.1,0.4,0.3,0.6,0.3
		c0.5-0.1,1.1-0.1,1.4-0.4c1.1-1.2,2.2-1,3.5-0.4c0.6,0.3,1.1,0.6,1.8,1.1c-1.1,0.5-2.1,1-3,1.4c-0.7,0.3-1.3-0.1-1.9-0.5
		c-0.4-0.3-0.9-0.5-1.3-0.7c-0.2-0.1-0.5,0-0.7,0c-0.2,0.1-0.4,0.2-0.4,0.3c0,0.1,0.1,0.3,0.2,0.5c0.1,0.2,0.3,0.3,0.5,0.4
		c-0.8,0.4-1.5,0.3-2.2-0.2c-0.1-0.1-0.2-0.2-0.4-0.3c-1.3-1.1-1.3-0.8,0-2C110.3,4.3,111.1,3.9,112.1,4.5z"/>
	<path class="st2" d="M173.9,6c1.2-1.5,2.4-2,3.5-1.4c-0.2,0.2-0.4,0.3-0.5,0.4c-0.3,0.3-0.3,0.6,0.2,0.7c0.6,0.2,1.3,0.1,1.7-0.4
		c1.1-1.2,2.3-0.9,3.5-0.3c0.5,0.3,1,0.6,1.6,1c-1,0.7-2,1.3-3.2,1.6c-0.7,0.2-1.1-0.3-1.6-0.6c-0.4-0.3-0.9-0.5-1.5-0.7
		c-0.3-0.1-0.6,0.2-0.9,0.3c0.2,0.2,0.3,0.5,0.5,0.7c0.1,0.1,0.1,0.1,0.2,0.2C176.4,8.1,175.5,7.7,173.9,6L173.9,6z"/>
	<path class="st2" d="M299.1,7.4c0.2-0.1,0.3-0.2,0.4-0.3c0.1-0.2,0.2-0.4,0.3-0.6c-0.2-0.1-0.4-0.3-0.6-0.3
		c-0.6-0.1-1.2,0.1-1.7,0.6c-0.8,0.8-1.6,0.9-2.6,0.4c-0.7-0.4-1.5-0.8-2.3-1.2c1.2-0.8,2.3-1.6,3.7-1.5c0.4,0,0.9,0.4,1.2,0.7
		c0.5,0.4,1.1,0.7,1.8,0.6c0.2,0,0.5-0.2,0.5-0.3c0-0.2-0.2-0.4-0.3-0.6c-0.1-0.1-0.2-0.2-0.4-0.3c0.6-0.2,1.1-0.5,1.7-0.1
		c0.7,0.4,1.3,1,2,1.4C302,7.3,300.4,7.9,299.1,7.4L299.1,7.4z"/>
	<path class="st2" d="M270.9,5.8c0.9-0.4,1.8-0.8,2.7-1.2c0.9-0.3,1.5,0,2.2,0.6c0.5,0.5,1.1,0.7,1.8,0.6c0.2,0,0.5-0.2,0.5-0.3
		c0-0.2-0.1-0.4-0.3-0.6c-0.1-0.1-0.3-0.2-0.4-0.3c1.1-0.6,2.5-0.1,3.5,1.4c-1,1.5-2.3,2-3.5,1.4c0.1-0.1,0.3-0.2,0.4-0.3
		c0.1-0.2,0.3-0.4,0.3-0.6c0-0.2-0.3-0.3-0.5-0.3c-0.7-0.1-1.3,0.1-1.7,0.6c-0.8,0.8-1.6,0.9-2.6,0.4c-0.8-0.4-1.5-0.8-2.3-1.2
		C270.9,6,270.9,5.9,270.9,5.8L270.9,5.8z"/>
	<path class="st2" d="M313.8,6c1-0.8,2-1.3,3.2-1.5c0.7-0.1,1.1,0.2,1.6,0.6c0.4,0.3,0.9,0.5,1.4,0.7c0.3,0.1,0.8-0.1,1-0.3
		c0.3-0.4-0.2-0.6-0.5-0.8c0-0.1-0.1-0.1-0.2-0.2c1.2-0.6,2.5,0,3.5,1.4c-1,1.5-2.4,2-3.5,1.4c0.2-0.1,0.3-0.2,0.4-0.4
		c0.1-0.2,0.3-0.4,0.2-0.5c0-0.2-0.3-0.3-0.5-0.3c-0.7-0.1-1.3,0.1-1.8,0.6c-0.8,0.8-1.6,0.9-2.6,0.4C315.3,6.9,314.6,6.5,313.8,6
		L313.8,6z"/>
	<path class="st2" d="M241.8,7.4c-1.2,0.6-2.5,0-3.6-1.5c0.7-0.7,1.3-1.3,2.2-1.6c0.4-0.1,0.9,0,1.4,0.1c0,0.1,0,0.1,0,0.2
		c-0.1,0.1-0.2,0.2-0.3,0.3c-0.1,0.2-0.2,0.4-0.4,0.6c0.2,0.1,0.4,0.3,0.6,0.3c0.5-0.1,1.1-0.1,1.4-0.4c1.1-1.2,2.3-1,3.5-0.4
		c0.5,0.3,1,0.6,1.6,1c-1.1,0.7-2.1,1.4-3.4,1.6c-0.4,0-1-0.3-1.4-0.6c-0.5-0.4-1-0.7-1.7-0.7c-0.3,0-0.5,0.2-0.8,0.4
		c0.1,0.2,0.3,0.4,0.4,0.6C241.5,7.3,241.6,7.3,241.8,7.4L241.8,7.4z"/>
	<path class="st2" d="M227.3,5.8c0.9-0.4,1.7-0.8,2.6-1.2c0.9-0.4,1.6-0.1,2.2,0.6c0.4,0.5,1,0.7,1.6,0.6c0.2,0,0.4-0.2,0.6-0.4
		c-0.1-0.2-0.2-0.4-0.4-0.6c-0.1-0.1-0.2-0.2-0.3-0.2c1-0.7,1.9-0.4,3.5,1.4c-0.8,1.3-2.3,2-3.5,1.5c0.2-0.2,0.4-0.3,0.5-0.4
		c0.3-0.3,0.3-0.6-0.2-0.8c-0.6-0.2-1.2,0-1.7,0.4c-0.2,0.2-0.4,0.4-0.7,0.5c-0.4,0.3-1,0.5-1.5,0.3c-1-0.4-1.9-0.9-2.9-1.3
		C227.3,6,227.3,5.9,227.3,5.8L227.3,5.8z"/>
	<path class="st2" d="M263.9,4.5c-0.2,0.2-0.4,0.3-0.5,0.4c-0.3,0.3-0.3,0.6,0.2,0.7c0.6,0.2,1.3,0.1,1.8-0.4
		c1.2-1.3,2.4-0.8,3.6-0.2c0.5,0.2,0.9,0.6,1.4,0.9c-1,0.7-2.1,1.4-3.3,1.6c-0.6,0.1-1.1-0.4-1.6-0.7c-0.5-0.3-1-0.5-1.5-0.6
		c-0.2-0.1-0.5,0.2-0.8,0.3c0.1,0.2,0.3,0.4,0.4,0.6c0.1,0.1,0.2,0.2,0.3,0.2c-1.2,0.6-1.9,0.3-3.6-1.4C261.2,4.6,262.6,4,263.9,4.5
		L263.9,4.5z"/>
	<path class="st2" d="M313.4,6c-1.1,0.5-2,1-3,1.4c-0.8,0.3-1.4,0-2-0.6c-0.5-0.4-1-0.7-1.6-0.6c-0.3,0-0.5,0.2-0.8,0.4
		c0.1,0.2,0.3,0.4,0.4,0.6c0.1,0.1,0.2,0.2,0.3,0.3c-0.8,0.4-1.5,0.4-2.2-0.2c-0.4-0.3-0.8-0.6-1.1-0.9c-0.3-0.2-0.2-0.4,0-0.7
		c0.4-0.3,0.8-0.7,1.2-1c0.6-0.5,1.3-0.5,2-0.1c-0.2,0.2-0.4,0.3-0.5,0.5c-0.3,0.3-0.2,0.6,0.2,0.7c0.6,0.2,1.3,0.1,1.8-0.4
		c1-1.2,2.2-1,3.4-0.4C312.1,5.2,312.7,5.6,313.4,6L313.4,6z"/>
	<path class="st2" d="M248.7,6.1c1.1-0.8,2-1.3,3.1-1.6c0.7-0.2,1.2,0.1,1.8,0.6c0.4,0.3,0.9,0.5,1.4,0.7c0.2,0.1,0.4,0,0.6-0.1
		c0.4-0.1,0.5-0.4,0.2-0.7c-0.1-0.2-0.3-0.3-0.5-0.4c1.1-0.6,2.4-0.1,3.5,1.4c-0.9,1.4-2.2,2-3.6,1.5c0.2-0.2,0.4-0.3,0.5-0.4
		c0.4-0.4,0.3-0.7-0.2-0.8c-0.7-0.2-1.3,0.1-1.8,0.5c-0.2,0.2-0.4,0.4-0.6,0.5c-0.4,0.3-0.9,0.4-1.5,0.2
		C250.7,7,249.7,6.6,248.7,6.1L248.7,6.1z"/>
	<path class="st2" d="M220.3,4.6c-0.1,0.1-0.3,0.2-0.3,0.3c-0.1,0.2-0.2,0.4-0.4,0.6c0.2,0.1,0.4,0.3,0.6,0.3
		c0.5-0.1,1.1-0.1,1.4-0.4c1.1-1.2,2.2-1,3.5-0.4c0.6,0.3,1.1,0.6,1.8,1.1c-1.1,0.5-2.1,1-3,1.4c-0.7,0.3-1.3-0.1-1.9-0.5
		c-0.4-0.3-0.9-0.5-1.3-0.7c-0.2-0.1-0.5,0-0.7,0c-0.2,0.1-0.4,0.2-0.4,0.3c0,0.1,0.1,0.3,0.2,0.5c0.1,0.2,0.3,0.3,0.5,0.4
		c-0.8,0.4-1.5,0.3-2.2-0.2c-0.1-0.1-0.2-0.2-0.4-0.3c-1.3-1.1-1.3-0.8,0-2C218.5,4.4,219.3,3.9,220.3,4.6L220.3,4.6z"/>
	<path class="st2" d="M282.1,6c1.2-1.5,2.4-2,3.5-1.4c-0.2,0.2-0.4,0.3-0.5,0.4c-0.3,0.3-0.3,0.6,0.2,0.7c0.6,0.2,1.3,0.1,1.7-0.4
		c1.1-1.2,2.3-0.9,3.5-0.3c0.5,0.3,1,0.6,1.6,1c-1,0.7-2,1.3-3.2,1.6c-0.7,0.2-1.1-0.3-1.6-0.6c-0.4-0.3-1-0.5-1.5-0.7
		c-0.3-0.1-0.6,0.2-0.9,0.3c0.2,0.2,0.3,0.5,0.5,0.7c0.1,0.1,0.1,0.1,0.2,0.2C284.5,8.1,283.7,7.7,282.1,6L282.1,6z"/>
	<path class="st2" d="M407.7,7.5c0.2-0.1,0.3-0.2,0.4-0.3c0.1-0.2,0.2-0.4,0.3-0.6c-0.2-0.1-0.4-0.3-0.6-0.3
		c-0.6-0.1-1.2,0.1-1.7,0.6c-0.8,0.8-1.6,0.9-2.6,0.4c-0.7-0.4-1.5-0.8-2.3-1.2c1.2-0.8,2.3-1.6,3.7-1.5c0.4,0,0.9,0.4,1.2,0.7
		c0.5,0.4,1.1,0.7,1.8,0.6c0.2,0,0.5-0.2,0.5-0.3c0-0.2-0.2-0.4-0.3-0.6c-0.1-0.1-0.2-0.2-0.4-0.3c0.6-0.2,1.1-0.5,1.7-0.1
		c0.7,0.4,1.3,1,2,1.4C410.6,7.3,409,8,407.7,7.5L407.7,7.5z"/>
	<path class="st2" d="M379.5,5.8c0.9-0.4,1.8-0.8,2.7-1.2c0.9-0.3,1.5,0,2.2,0.6c0.5,0.5,1.1,0.7,1.8,0.6c0.2,0,0.5-0.2,0.5-0.3
		c0-0.2-0.1-0.4-0.3-0.6c-0.1-0.1-0.3-0.2-0.4-0.3c1.1-0.6,2.5-0.1,3.5,1.4c-1,1.5-2.3,2-3.5,1.4c0.1-0.1,0.3-0.2,0.4-0.3
		c0.1-0.2,0.3-0.4,0.3-0.6c0-0.2-0.3-0.3-0.5-0.3c-0.7-0.1-1.3,0.1-1.7,0.6c-0.8,0.8-1.6,0.9-2.6,0.4c-0.8-0.4-1.5-0.8-2.3-1.2
		C379.5,6,379.5,5.9,379.5,5.8L379.5,5.8z"/>
	<path class="st2" d="M422.4,6.1c1-0.8,2-1.3,3.2-1.5c0.7-0.1,1.1,0.2,1.6,0.6c0.4,0.3,0.9,0.5,1.4,0.7c0.3,0.1,0.8-0.1,1-0.3
		c0.3-0.4-0.2-0.6-0.5-0.8c0-0.1-0.1-0.1-0.2-0.2c1.2-0.6,2.5,0,3.5,1.4c-1,1.5-2.4,2-3.5,1.4c0.2-0.1,0.3-0.2,0.4-0.4
		c0.1-0.2,0.3-0.4,0.2-0.5c0-0.2-0.3-0.3-0.5-0.3c-0.7-0.1-1.3,0.1-1.8,0.6c-0.8,0.8-1.6,0.9-2.6,0.4C424,6.9,423.2,6.5,422.4,6.1
		L422.4,6.1z"/>
	<path class="st2" d="M350.4,7.5c-1.2,0.5-2.5,0-3.6-1.5c0.7-0.7,1.3-1.3,2.2-1.6c0.4-0.1,0.9,0,1.4,0.1c0,0.1,0,0.1,0,0.2
		c-0.1,0.1-0.2,0.2-0.3,0.3c-0.1,0.2-0.2,0.4-0.4,0.6c0.2,0.1,0.4,0.3,0.6,0.3c0.5-0.1,1.1-0.1,1.4-0.4c1.1-1.2,2.3-1,3.5-0.4
		c0.5,0.3,1,0.6,1.6,1c-1.1,0.7-2.1,1.4-3.4,1.6c-0.4,0-1-0.3-1.4-0.6c-0.5-0.4-1-0.7-1.7-0.7c-0.3,0-0.5,0.2-0.8,0.4
		c0.1,0.2,0.3,0.4,0.4,0.6C350.1,7.3,350.2,7.4,350.4,7.5L350.4,7.5z"/>
	<path class="st2" d="M336,5.9c0.9-0.4,1.7-0.8,2.6-1.2c0.9-0.4,1.6-0.1,2.2,0.6c0.5,0.5,1,0.7,1.6,0.6c0.2,0,0.4-0.2,0.6-0.4
		c-0.1-0.2-0.2-0.4-0.4-0.6c-0.1-0.1-0.2-0.2-0.3-0.2c1-0.7,1.9-0.4,3.5,1.4c-0.8,1.3-2.3,2-3.5,1.5c0.2-0.2,0.4-0.3,0.5-0.4
		c0.3-0.3,0.3-0.6-0.2-0.8c-0.6-0.2-1.2,0-1.7,0.4c-0.2,0.2-0.4,0.4-0.7,0.5c-0.5,0.3-1,0.5-1.5,0.3c-1-0.4-1.9-0.9-2.9-1.3
		C336,6.1,336,6,336,5.9L336,5.9z"/>
	<path class="st2" d="M372.5,4.6c-0.2,0.2-0.4,0.3-0.5,0.4c-0.3,0.3-0.3,0.6,0.2,0.7c0.6,0.2,1.3,0.1,1.8-0.4
		c1.2-1.3,2.4-0.8,3.6-0.2c0.5,0.2,0.9,0.6,1.4,0.9c-1,0.7-2.1,1.4-3.3,1.6c-0.6,0.1-1.1-0.4-1.6-0.7c-0.5-0.3-1-0.5-1.5-0.6
		c-0.2-0.1-0.5,0.2-0.8,0.3c0.1,0.2,0.3,0.4,0.4,0.6c0.1,0.1,0.2,0.2,0.3,0.2c-1.2,0.6-1.9,0.3-3.6-1.4
		C369.9,4.6,371.2,4.1,372.5,4.6L372.5,4.6z"/>
	<path class="st2" d="M422,6.1c-1.1,0.5-2,1-3,1.4c-0.8,0.3-1.4,0-2-0.6c-0.5-0.4-1-0.7-1.6-0.6c-0.3,0-0.5,0.2-0.8,0.4
		c0.1,0.2,0.3,0.4,0.4,0.6c0.1,0.1,0.2,0.2,0.3,0.3c-0.8,0.4-1.5,0.4-2.2-0.2c-0.4-0.3-0.8-0.6-1.1-0.9c-0.3-0.2-0.2-0.4,0-0.7
		c0.4-0.3,0.8-0.7,1.2-1c0.6-0.5,1.3-0.5,2-0.1c-0.2,0.2-0.4,0.3-0.5,0.5c-0.3,0.3-0.2,0.6,0.2,0.7c0.6,0.2,1.3,0.1,1.8-0.4
		c1-1.2,2.2-1,3.4-0.4C420.8,5.3,421.3,5.6,422,6.1L422,6.1z"/>
	<path class="st2" d="M357.3,6.1c1.1-0.8,2-1.3,3.1-1.5c0.7-0.2,1.2,0.1,1.8,0.6c0.4,0.3,1,0.5,1.5,0.7c0.2,0.1,0.4,0,0.6-0.1
		c0.4-0.1,0.5-0.4,0.2-0.7c-0.1-0.2-0.3-0.3-0.5-0.4c1.1-0.6,2.4-0.1,3.5,1.4c-0.9,1.4-2.2,2-3.6,1.5c0.2-0.2,0.4-0.3,0.5-0.4
		c0.4-0.4,0.3-0.7-0.2-0.8c-0.7-0.2-1.3,0.1-1.8,0.5c-0.2,0.2-0.4,0.4-0.6,0.5c-0.5,0.3-1,0.4-1.5,0.2
		C359.3,7.1,358.3,6.6,357.3,6.1L357.3,6.1z"/>
	<path class="st2" d="M328.9,4.6c-0.1,0.1-0.3,0.2-0.3,0.3c-0.1,0.2-0.2,0.4-0.4,0.6c0.2,0.1,0.4,0.3,0.6,0.3
		c0.5-0.1,1.1-0.1,1.4-0.4c1.1-1.2,2.2-1,3.5-0.4c0.6,0.3,1.1,0.6,1.8,1.1c-1.1,0.5-2,1-3,1.4c-0.7,0.3-1.3-0.1-1.9-0.5
		c-0.4-0.3-0.9-0.5-1.3-0.7c-0.2-0.1-0.5,0-0.7,0c-0.2,0.1-0.4,0.2-0.4,0.3c0,0.1,0.1,0.3,0.2,0.5c0.1,0.2,0.3,0.3,0.5,0.4
		c-0.8,0.4-1.5,0.3-2.2-0.2c-0.1-0.1-0.2-0.2-0.4-0.3c-1.3-1.1-1.3-0.8,0-2C327.1,4.4,327.9,4,328.9,4.6z"/>
	<path class="st2" d="M390.7,6c1.2-1.5,2.4-2,3.5-1.4c-0.2,0.2-0.4,0.3-0.5,0.4c-0.3,0.3-0.3,0.6,0.2,0.7c0.6,0.2,1.3,0.1,1.7-0.4
		c1.1-1.2,2.3-0.9,3.5-0.3c0.5,0.3,1,0.6,1.6,1c-1,0.7-2,1.3-3.2,1.6c-0.7,0.2-1.1-0.3-1.6-0.6c-0.4-0.3-1-0.5-1.5-0.7
		c-0.3-0.1-0.6,0.2-0.9,0.3c0.2,0.2,0.3,0.5,0.5,0.7c0.1,0.1,0.1,0.1,0.2,0.2C393.2,8.1,392.3,7.8,390.7,6L390.7,6z"/>
	<path class="st2" d="M515.8,7.3c0.2-0.1,0.3-0.2,0.4-0.3c0.1-0.2,0.2-0.4,0.3-0.6c-0.2-0.1-0.4-0.3-0.6-0.3
		c-0.6-0.1-1.2,0.1-1.7,0.6c-0.8,0.8-1.6,0.9-2.6,0.4c-0.7-0.4-1.5-0.8-2.3-1.2c1.2-0.8,2.3-1.6,3.7-1.5c0.4,0,0.8,0.4,1.2,0.7
		c0.5,0.4,1.1,0.7,1.8,0.6c0.2,0,0.5-0.2,0.5-0.3c0-0.2-0.2-0.4-0.3-0.6c-0.1-0.1-0.2-0.2-0.4-0.3c0.6-0.2,1.2-0.5,1.7-0.1
		c0.7,0.4,1.3,1,2,1.4C518.7,7.2,517.1,7.8,515.8,7.3L515.8,7.3z"/>
	<path class="st2" d="M487.6,5.7c0.9-0.4,1.8-0.8,2.7-1.2c0.9-0.3,1.5,0,2.2,0.6c0.5,0.5,1.1,0.7,1.8,0.6c0.2,0,0.5-0.2,0.5-0.3
		c0-0.2-0.1-0.4-0.3-0.6c-0.1-0.1-0.3-0.2-0.4-0.3c1.1-0.6,2.5-0.1,3.5,1.4c-1,1.5-2.3,2-3.5,1.4c0.1-0.1,0.3-0.2,0.4-0.3
		c0.1-0.2,0.3-0.4,0.3-0.6c0-0.2-0.3-0.3-0.5-0.3c-0.7-0.1-1.3,0.1-1.7,0.6c-0.8,0.8-1.6,0.9-2.6,0.4c-0.8-0.4-1.5-0.8-2.3-1.2
		C487.6,5.9,487.6,5.8,487.6,5.7L487.6,5.7z"/>
	<path class="st2" d="M530.5,5.9c1-0.8,2-1.3,3.2-1.6c0.7-0.1,1.1,0.2,1.7,0.6c0.4,0.3,0.9,0.5,1.3,0.7c0.3,0.1,0.8-0.1,1-0.3
		c0.3-0.4-0.2-0.6-0.5-0.8c0-0.1-0.1-0.1-0.2-0.2c1.2-0.6,2.5,0,3.5,1.4c-1,1.5-2.4,2-3.5,1.4c0.2-0.1,0.3-0.2,0.4-0.4
		c0.1-0.2,0.3-0.4,0.2-0.5c0-0.2-0.3-0.3-0.5-0.3c-0.7-0.1-1.3,0.1-1.8,0.6c-0.8,0.8-1.7,0.9-2.6,0.4C532.1,6.8,531.4,6.4,530.5,5.9
		L530.5,5.9z"/>
	<path class="st2" d="M458.5,7.3c-1.2,0.6-2.5,0-3.6-1.5c0.7-0.7,1.3-1.3,2.2-1.6c0.4-0.1,0.9,0,1.4,0.1c0,0.1,0,0.1,0,0.2
		c-0.1,0.1-0.2,0.2-0.3,0.3c-0.1,0.2-0.2,0.4-0.4,0.6c0.2,0.1,0.4,0.3,0.6,0.3c0.5-0.1,1.1-0.1,1.4-0.4c1.1-1.2,2.3-1,3.5-0.4
		c0.5,0.3,1,0.6,1.6,1c-1.1,0.7-2.1,1.4-3.4,1.6c-0.4,0-1-0.3-1.4-0.6c-0.5-0.4-1-0.7-1.7-0.7c-0.3,0-0.5,0.2-0.8,0.4
		c0.1,0.2,0.3,0.4,0.4,0.6C458.2,7.2,458.3,7.2,458.5,7.3L458.5,7.3z"/>
	<path class="st2" d="M444.1,5.7c0.9-0.4,1.7-0.8,2.6-1.2c0.9-0.4,1.6-0.1,2.2,0.6c0.5,0.5,1,0.7,1.6,0.6c0.2,0,0.4-0.2,0.6-0.4
		c-0.1-0.2-0.2-0.4-0.4-0.6c-0.1-0.1-0.2-0.2-0.3-0.2c1-0.7,1.9-0.4,3.5,1.4c-0.8,1.3-2.3,2-3.5,1.5c0.2-0.2,0.4-0.3,0.5-0.4
		c0.3-0.3,0.3-0.6-0.2-0.8c-0.6-0.2-1.2,0-1.7,0.4c-0.2,0.2-0.4,0.4-0.7,0.5c-0.5,0.3-1,0.5-1.5,0.3c-1-0.4-1.9-0.9-2.9-1.3
		C444.1,5.9,444.1,5.8,444.1,5.7L444.1,5.7z"/>
	<path class="st2" d="M480.6,4.4c-0.2,0.2-0.4,0.3-0.5,0.4c-0.3,0.3-0.3,0.6,0.2,0.7c0.6,0.2,1.3,0.1,1.8-0.4
		c1.2-1.3,2.4-0.8,3.6-0.2c0.5,0.2,0.9,0.6,1.4,0.9c-1,0.7-2.1,1.4-3.3,1.6c-0.6,0.1-1.1-0.4-1.6-0.7c-0.5-0.3-1-0.5-1.5-0.6
		c-0.2-0.1-0.5,0.2-0.8,0.3c0.1,0.2,0.3,0.4,0.4,0.6c0.1,0.1,0.2,0.2,0.3,0.2c-1.2,0.6-1.9,0.3-3.6-1.4C478,4.5,479.3,3.9,480.6,4.4
		L480.6,4.4z"/>
	<path class="st2" d="M530.2,5.9c-1.1,0.5-2,1-3,1.4c-0.8,0.3-1.4,0-2-0.6c-0.5-0.4-1-0.7-1.6-0.6c-0.3,0-0.5,0.2-0.8,0.4
		c0.2,0.2,0.3,0.4,0.4,0.6c0.1,0.1,0.2,0.2,0.3,0.3c-0.8,0.4-1.5,0.4-2.2-0.2c-0.4-0.3-0.8-0.6-1.1-0.9c-0.3-0.2-0.2-0.4,0-0.7
		c0.4-0.3,0.8-0.7,1.2-1c0.6-0.5,1.3-0.5,2-0.1c-0.2,0.2-0.4,0.3-0.5,0.5c-0.3,0.3-0.2,0.6,0.2,0.7c0.7,0.2,1.3,0.1,1.8-0.4
		c1-1.2,2.2-1,3.4-0.4C528.9,5.1,529.4,5.5,530.2,5.9z"/>
	<path class="st2" d="M465.4,5.9c1.1-0.8,2-1.3,3.1-1.5c0.7-0.2,1.2,0.1,1.8,0.6c0.4,0.3,1,0.5,1.5,0.7c0.2,0.1,0.4,0,0.6-0.1
		c0.4-0.1,0.5-0.4,0.2-0.7c-0.1-0.2-0.3-0.3-0.5-0.4c1.1-0.6,2.4-0.1,3.5,1.4c-0.9,1.4-2.2,2-3.6,1.5c0.2-0.2,0.4-0.3,0.5-0.4
		c0.4-0.4,0.3-0.7-0.2-0.8c-0.7-0.2-1.3,0.1-1.8,0.5c-0.2,0.2-0.4,0.4-0.6,0.5c-0.5,0.3-1,0.4-1.5,0.2
		C467.4,6.9,466.5,6.5,465.4,5.9L465.4,5.9z"/>
	<path class="st2" d="M437,4.4c-0.1,0.1-0.3,0.2-0.3,0.3c-0.1,0.2-0.2,0.4-0.4,0.6c0.2,0.1,0.4,0.3,0.6,0.3c0.5-0.1,1.1-0.1,1.4-0.4
		c1.1-1.2,2.2-1,3.5-0.4c0.6,0.3,1.1,0.6,1.8,1c-1.1,0.5-2,1-3,1.4c-0.7,0.3-1.3-0.1-1.9-0.5c-0.4-0.3-0.9-0.5-1.3-0.7
		c-0.2-0.1-0.5,0-0.7,0c-0.2,0.1-0.4,0.2-0.4,0.3c0,0.1,0.1,0.3,0.2,0.5c0.1,0.2,0.3,0.3,0.5,0.4c-0.8,0.4-1.5,0.3-2.2-0.2
		c-0.1-0.1-0.2-0.2-0.4-0.3c-1.3-1.1-1.3-0.8,0-2C435.2,4.3,436,3.8,437,4.4z"/>
	<path class="st2" d="M498.9,5.9c1.2-1.5,2.4-2,3.5-1.4c-0.2,0.2-0.4,0.3-0.5,0.4c-0.3,0.3-0.3,0.6,0.2,0.7c0.6,0.2,1.3,0.1,1.7-0.4
		c1.1-1.2,2.3-0.9,3.5-0.3c0.5,0.3,1,0.6,1.6,1c-1,0.7-2,1.3-3.2,1.6c-0.7,0.2-1.1-0.3-1.6-0.6c-0.4-0.3-1-0.5-1.5-0.7
		c-0.3-0.1-0.6,0.2-0.9,0.3c0.2,0.2,0.3,0.5,0.5,0.7c0.1,0.1,0.1,0.1,0.2,0.2C501.3,8,500.4,7.6,498.9,5.9L498.9,5.9z"/>
	<path class="st2" d="M567.1,7.4c-1.2,0.6-2.5,0-3.6-1.5c0.7-0.7,1.3-1.3,2.2-1.6c0.4-0.1,0.9,0,1.3,0.1c0,0.1,0,0.1,0,0.2
		c-0.1,0.1-0.2,0.2-0.3,0.3c-0.1,0.2-0.2,0.4-0.3,0.6c0.2,0.1,0.4,0.3,0.6,0.3c0.5-0.1,1.1-0.1,1.4-0.4c1.1-1.2,2.3-1,3.5-0.4
		c0.5,0.3,1,0.6,1.7,1c-1.1,0.7-2.1,1.4-3.4,1.6c-0.4,0-1-0.3-1.3-0.6c-0.5-0.4-1-0.7-1.7-0.7c-0.3,0-0.5,0.2-0.8,0.4
		c0.1,0.2,0.3,0.4,0.4,0.6C566.8,7.2,567,7.3,567.1,7.4L567.1,7.4z"/>
	<path class="st2" d="M552.7,5.8c0.9-0.4,1.7-0.8,2.6-1.2c0.9-0.4,1.6-0.1,2.2,0.6c0.5,0.5,1,0.7,1.7,0.6c0.2,0,0.4-0.2,0.7-0.4
		c-0.1-0.2-0.2-0.4-0.4-0.6c-0.1-0.1-0.2-0.2-0.3-0.2c1-0.7,1.9-0.4,3.5,1.4c-0.8,1.3-2.3,2-3.5,1.5c0.2-0.2,0.4-0.3,0.5-0.4
		c0.3-0.3,0.3-0.6-0.2-0.8c-0.6-0.2-1.2,0-1.7,0.4c-0.2,0.2-0.4,0.4-0.7,0.5c-0.5,0.3-1,0.5-1.5,0.3c-1-0.4-1.9-0.9-2.9-1.3
		C552.7,6,552.7,5.9,552.7,5.8L552.7,5.8z"/>
	<path class="st2" d="M589.2,4.5c-0.2,0.2-0.4,0.3-0.5,0.4c-0.3,0.3-0.3,0.6,0.2,0.7c0.7,0.2,1.3,0.1,1.8-0.4
		c1.2-1.3,2.4-0.8,3.6-0.2c0.5,0.2,0.9,0.6,1.4,0.9c-1,0.7-2.1,1.4-3.3,1.6c-0.6,0.1-1.1-0.4-1.6-0.7c-0.5-0.3-1-0.5-1.5-0.6
		c-0.2-0.1-0.5,0.2-0.8,0.3c0.1,0.2,0.3,0.4,0.4,0.6c0.1,0.1,0.2,0.2,0.3,0.2c-1.2,0.6-1.9,0.3-3.6-1.4C586.6,4.5,588,4,589.2,4.5
		L589.2,4.5z"/>
	<path class="st2" d="M574,6c1.1-0.8,2-1.3,3.1-1.6c0.7-0.2,1.2,0.1,1.8,0.6c0.4,0.3,1,0.5,1.5,0.7c0.2,0.1,0.4,0,0.6-0.1
		c0.4-0.1,0.5-0.4,0.2-0.7c-0.2-0.2-0.3-0.3-0.5-0.4c1.1-0.6,2.3-0.1,3.5,1.4c-0.9,1.4-2.2,2-3.6,1.5c0.2-0.2,0.4-0.3,0.5-0.4
		c0.4-0.4,0.3-0.7-0.2-0.8c-0.7-0.2-1.3,0.1-1.8,0.5c-0.2,0.2-0.4,0.4-0.6,0.5c-0.5,0.3-1,0.4-1.5,0.2C576,6.9,575.1,6.5,574,6
		L574,6z"/>
	<path class="st2" d="M545.7,4.5c-0.1,0.1-0.3,0.2-0.3,0.3c-0.1,0.2-0.2,0.4-0.3,0.6c0.2,0.1,0.4,0.3,0.6,0.3
		c0.5-0.1,1.1-0.1,1.4-0.4c1.1-1.2,2.2-1,3.5-0.4c0.6,0.3,1.1,0.6,1.8,1c-1.1,0.5-2,1-3,1.4c-0.7,0.3-1.3-0.1-1.9-0.5
		c-0.4-0.3-0.9-0.5-1.3-0.7c-0.2-0.1-0.5,0-0.7,0c-0.2,0.1-0.4,0.2-0.4,0.3c0,0.1,0.1,0.3,0.2,0.5c0.1,0.2,0.3,0.3,0.5,0.4
		c-0.8,0.4-1.5,0.3-2.2-0.2c-0.1-0.1-0.2-0.2-0.4-0.3c-1.3-1.1-1.3-0.8,0-2C543.9,4.3,544.6,3.9,545.7,4.5L545.7,4.5z"/>
	<rect x="262.3" y="18.7" class="st3" width="0.8" height="18.8"/>
</g>
</svg>
